<svg width="27" height="24" viewBox="0 0 27 24" fill="none" xmlns="http://www.w3.org/2000/svg">
<path fill-rule="evenodd" clip-rule="evenodd" d="M4.67908 0.0350763C4.35982 0.116052 3.34434 0.727353 2.84413 1.13961C1.49794 2.24909 0.527685 3.86716 0.154138 5.62555C-0.0622816 6.64423 -0.0494928 8.24793 0.18425 9.39491C0.422643 10.5647 0.761079 11.5378 1.3178 12.6544C1.75389 13.529 4.72064 18.6263 5.17121 19.2751C7.12887 22.094 9.80532 23.8084 12.517 23.9805C14.2304 24.0892 15.7347 23.7442 17.1 22.9293C17.6064 22.627 17.7389 22.5173 17.8848 22.2791C18.0531 22.0042 18.0601 21.9664 18.0561 21.349C18.0525 20.7926 18.0299 20.6465 17.8889 20.2695C17.6531 19.6388 17.3529 19.0636 16.8117 18.2059C16.0049 16.9269 15.5497 16.3974 14.8906 15.9714C14.3857 15.645 14.0019 15.5412 13.4151 15.5721C12.873 15.6007 12.5969 15.71 11.6368 16.2763C11.0573 16.6182 11.0074 16.6363 10.6486 16.6362C10.1784 16.636 9.73655 16.4304 9.35399 16.034C9.181 15.8547 8.62637 14.956 7.69878 13.352C6.93152 12.0251 6.25639 10.848 6.19849 10.7361C6.04369 10.4368 6.01091 9.59284 6.14089 9.25254C6.2697 8.91527 6.4384 8.76268 7.13486 8.35379L7.71 8.01605L7.804 8.16986C7.95671 8.41971 14.0412 13.1747 14.5095 13.4101C14.8812 13.5969 14.9548 13.6132 15.4118 13.6095C15.815 13.6062 15.9701 13.5776 16.2291 13.4587C16.4304 13.3663 18.1103 12.0855 20.7633 10.0016C23.0813 8.18085 25.0105 6.67108 25.0505 6.64655C25.1084 6.61103 25.1231 7.70517 25.1231 12.0432V17.4845L24.9804 17.6272L24.8378 17.7699L21.8268 17.7702C19.8928 17.7704 18.7369 17.7925 18.5949 17.8319C18.1573 17.9534 18.0092 18.4853 18.3171 18.8298L18.4868 19.0197H21.7613C24.9946 19.0197 25.0394 19.0181 25.3077 18.8941C25.6904 18.7172 26.0766 18.3406 26.2221 18.0024L26.346 17.7144L26.3304 11.5658L26.3148 5.41715L26.1557 5.14655C25.9623 4.81759 25.6248 4.54095 25.2371 4.39365C24.958 4.28756 24.6528 4.2836 16.7931 4.2836H8.63881L8.12697 3.28085C7.49951 2.05168 7.09074 1.42701 6.52908 0.839079C5.90261 0.183251 5.23632 -0.106297 4.67908 0.0350763ZM5.33706 1.4262C5.79385 1.75708 6.294 2.46586 6.94326 3.7023C7.4576 4.68168 7.69245 5.35815 7.70018 5.88219C7.71012 6.56122 7.65641 6.61923 6.29609 7.39737C5.42175 7.89758 5.05954 8.3539 4.85771 9.20964C4.74186 9.7009 4.77999 10.5124 4.94037 10.9686C5.04321 11.261 7.76912 16.0247 8.15569 16.5876C8.52005 17.118 9.26017 17.6241 9.92443 17.7971C10.3704 17.9133 11.0367 17.9109 11.3877 17.7918C11.5407 17.7399 12.006 17.5006 12.4216 17.2601C13.3117 16.745 13.5943 16.6807 14.0183 16.8969C14.565 17.1759 15.1577 17.8744 15.9259 19.1451C16.4582 20.0256 16.7408 20.6647 16.831 21.1914C16.9054 21.6255 16.9072 21.6231 16.2061 22.0101C14.546 22.9265 12.2873 23.0112 10.4695 22.2252C8.83099 21.5169 7.28484 20.1734 6.11914 18.4452C5.73967 17.8827 2.76356 12.7539 2.43844 12.1022C1.05975 9.33893 0.861762 6.46641 1.90154 4.31267C2.23789 3.61598 2.56504 3.1729 3.23221 2.51062C3.70969 2.03668 4.0118 1.7923 4.39959 1.56641C4.68733 1.39876 4.96461 1.2614 5.01577 1.26122C5.06692 1.26099 5.21149 1.33522 5.33706 1.4262ZM24.3936 5.55597C24.3176 5.62694 16.4489 11.8024 16.067 12.0909C15.7005 12.3676 15.319 12.4372 15.019 12.282C14.9183 12.23 13.4745 11.118 11.8104 9.81095C10.1464 8.50388 8.7338 7.39911 8.67131 7.35592C8.56022 7.27907 8.56173 7.2693 8.73839 6.91651C8.88796 6.61772 8.92417 6.4653 8.949 6.03002L8.97893 5.50435H16.7139C21.2204 5.50435 24.4257 5.52585 24.3936 5.55597Z" fill="#646464"/>
</svg>
